<?xml version="1.0" encoding="UTF-8" standalone="no"?>
<!-- Created with Inkscape (http://www.inkscape.org/) -->

<svg
   xmlns:dc="http://purl.org/dc/elements/1.1/"
   xmlns:cc="http://creativecommons.org/ns#"
   xmlns:rdf="http://www.w3.org/1999/02/22-rdf-syntax-ns#"
   xmlns:svg="http://www.w3.org/2000/svg"
   xmlns="http://www.w3.org/2000/svg"
   xmlns:xlink="http://www.w3.org/1999/xlink"
   version="1.0"
   width="146"
   height="106"
   viewBox="-160 -160 320 280"
   id="Food Logo">
  <metadata
     id="metadata1923">
    <rdf:RDF>
      <cc:Work
         rdf:about="">
        <dc:format>image/svg+xml</dc:format>
        <dc:type
           rdf:resource="http://purl.org/dc/dcmitype/StillImage" />
        <dc:title></dc:title>
      </cc:Work>
    </rdf:RDF>
  </metadata>
  <defs
     id="defs1905">
    <linearGradient
       id="linearGradient44016">
      <stop
         id="stop44018"
         style="stop-color:#000000;stop-opacity:0.07843138"
         offset="0" />
      <stop
         id="stop44020"
         style="stop-color:#000000;stop-opacity:0.27450982"
         offset="1" />
    </linearGradient>
    <linearGradient
       id="linearGradient26660">
      <stop
         id="stop26662"
         style="stop-color:#dddddd;stop-opacity:1"
         offset="0" />
      <stop
         id="stop26664"
         style="stop-color:#7f7f7f;stop-opacity:1"
         offset="1" />
    </linearGradient>
    <linearGradient
       id="gradient">
      <stop
         id="stop1908"
         style="stop-color:#ffffff;stop-opacity:1"
         offset="0" />
      <stop
         id="stop1910"
         style="stop-color:#d3d3d3;stop-opacity:1"
         offset="1" />
    </linearGradient>
    <linearGradient
       x1="-148.40625"
       y1="-146.90625"
       x2="-109.09375"
       y2="98.90625"
       id="linearGradient56654"
       xlink:href="#gradient"
       gradientUnits="userSpaceOnUse"
       gradientTransform="translate(-3.669025,15.40625)" />
    <linearGradient
       x1="-148.40625"
       y1="-146.90625"
       x2="-109.09375"
       y2="98.90625"
       id="linearGradient56656"
       xlink:href="#gradient"
       gradientUnits="userSpaceOnUse"
       gradientTransform="translate(-3.669025,15.40625)" />
    <linearGradient
       x1="-145.90625"
       y1="-144.40625"
       x2="-111.59375"
       y2="96.40625"
       id="linearGradient56658"
       xlink:href="#linearGradient26660"
       gradientUnits="userSpaceOnUse"
       gradientTransform="translate(-3.669025,15.40625)" />
    <linearGradient
       x1="109.28699"
       y1="-148.05621"
       x2="144.09375"
       y2="99.59375"
       id="linearGradient56660"
       xlink:href="#gradient"
       gradientUnits="userSpaceOnUse"
       gradientTransform="translate(59.73723,15.40625)" />
    <linearGradient
       x1="112.53279"
       y1="-144.89876"
       x2="140.90625"
       y2="96.40625"
       id="linearGradient56662"
       xlink:href="#linearGradient26660"
       gradientUnits="userSpaceOnUse"
       gradientTransform="translate(59.73723,15.40625)" />
    <linearGradient
       x1="-67.5"
       y1="0"
       x2="67.5"
       y2="0"
       id="linearGradient56685"
       xlink:href="#linearGradient44016"
       gradientUnits="userSpaceOnUse" />
    <linearGradient
       x1="-148.40625"
       y1="-146.90625"
       x2="-109.09375"
       y2="98.90625"
       id="linearGradient3207"
       xlink:href="#gradient"
       gradientUnits="userSpaceOnUse"
       gradientTransform="matrix(1.005282,0,0,1.005282,-31.877035,1.6135658)" />
    <linearGradient
       x1="-148.40625"
       y1="-146.90625"
       x2="-109.09375"
       y2="98.90625"
       id="linearGradient3209"
       xlink:href="#gradient"
       gradientUnits="userSpaceOnUse"
       gradientTransform="matrix(1.005282,0,0,1.005282,-31.877035,1.6135658)" />
    <linearGradient
       x1="-67.5"
       y1="0"
       x2="67.5"
       y2="0"
       id="linearGradient3221"
       xlink:href="#linearGradient44016"
       gradientUnits="userSpaceOnUse" />
    <linearGradient
       x1="-67.5"
       y1="0"
       x2="67.5"
       y2="0"
       id="linearGradient3291"
       xlink:href="#linearGradient44016"
       gradientUnits="userSpaceOnUse" />
    <linearGradient
       x1="-148.40625"
       y1="-146.90625"
       x2="-109.09375"
       y2="98.90625"
       id="linearGradient4115"
       xlink:href="#gradient"
       gradientUnits="userSpaceOnUse"
       gradientTransform="matrix(0.38057104,0,0,0.38057104,60.932265,61.182278)" />
  </defs>
  <path
     d="m -171.34707,-148.64468 c -4.69702,0 -8.11493,2.89967 -9.89574,5.74896 -1.67872,2.68595 -2.38755,5.72802 -2.38755,8.79622 l 0,96.507068 c 0,6.976447 1.67818,13.46673 4.96358,18.723377 1.87844,3.005496 4.49039,5.54005 7.60245,7.31971 l 0,106.654137 c 0,4.217691 1.01954,8.228448 3.1415,11.623568 2.18912,3.50261 6.22799,6.94273 11.65499,6.94273 5.42701,0 9.43445,-3.44012 11.62357,-6.94273 2.12196,-3.39513 3.17292,-7.405877 3.17292,-11.623568 l 0,-106.685552 c 3.09511,-1.779439 5.70012,-4.294848 7.57103,-7.288295 3.28542,-5.256649 4.995,-11.746931 4.995,-18.723377 l 0,-96.507068 c 0,-3.0682 -0.74023,-6.11026 -2.41896,-8.79622 -1.78082,-2.8493 -5.16731,-5.74896 -9.86433,-5.74896 -3.14066,0 -5.65384,1.33261 -7.53961,3.04726 -1.88692,-1.72006 -4.39226,-3.04726 -7.53962,-3.04726 -3.14066,0 -5.65384,1.33261 -7.53961,3.04726 -1.88692,-1.72006 -4.39226,-3.04726 -7.53962,-3.04726 z"
     id="path52989"
     style="fill:#000000;fill-opacity:0.2;fill-rule:nonzero;stroke:none" />
  <path
     d="m -176.38632,-146.75977 c -1.72822,0 -3.14634,1.11355 -4.02113,2.5132 -0.87478,1.39965 -1.35084,3.1866 -1.35084,5.12066 l 0,96.507068 c 0,5.820464 1.46029,11.101275 3.92688,15.047815 2.13848,3.421557 5.17038,5.778917 8.63914,6.377257 l 0,111.272152 c 0,3.044456 0.77523,5.820673 2.10481,7.948011 1.32959,2.127337 3.35815,3.706977 5.78037,3.706977 2.42223,0 4.45079,-1.57964 5.78037,-3.706977 1.32959,-2.127338 2.10481,-4.903555 2.10481,-7.948011 l 0,-111.272152 c 3.46877,-0.59834 6.50067,-2.9557 8.63915,-6.377257 2.46659,-3.94654 3.92688,-9.227351 3.92688,-15.047815 l 0,-96.507068 c 0,-1.93406 -0.47606,-3.72101 -1.35085,-5.12066 -0.87479,-1.39965 -2.29291,-2.5132 -4.02113,-2.5132 -1.72822,0 -3.14634,1.11355 -4.02113,2.5132 -0.87478,1.39965 -1.35084,3.1866 -1.35084,5.12066 l 0,96.507068 c 0,1.397161 -0.3586,2.640856 -0.84821,3.424242 -0.48961,0.783386 -0.96564,1.005282 -1.31943,1.005282 -0.35379,0 -0.82982,-0.221896 -1.31943,-1.005282 -0.48962,-0.783386 -0.84821,-2.027081 -0.84821,-3.424242 l 0,-96.507068 c 0,-1.93406 -0.47606,-3.72101 -1.35085,-5.12066 -0.87479,-1.39965 -2.29291,-2.5132 -4.02113,-2.5132 -1.72822,0 -3.14634,1.11355 -4.02113,2.5132 -0.87478,1.39965 -1.35084,3.1866 -1.35084,5.12066 l 0,96.507068 c 0,1.397161 -0.3586,2.640856 -0.84821,3.424242 -0.48961,0.783386 -0.96564,1.005282 -1.31943,1.005282 -0.35379,0 -0.82982,-0.221896 -1.31943,-1.005282 -0.48962,-0.783386 -0.84821,-2.027081 -0.84821,-3.424242 l 0,-96.507068 c 0,-1.93406 -0.47606,-3.72101 -1.35085,-5.12066 -0.87479,-1.39965 -2.29291,-2.5132 -4.02113,-2.5132 z"
     id="path1916"
     style="fill:#333333;fill-opacity:1;stroke:#2d2d2d;stroke-width:13.82262707;stroke-miterlimit:4;stroke-opacity:1;stroke-dasharray:none" />
  <path
     d="m -176.4033,-146.79245 c -1.728,0 -3.14961,1.04407 -4.04481,2.47641 -0.93729,1.49968 -1.32076,3.3177 -1.32076,5.20047 l 0,96.497644 c 0,5.811529 1.3903,11.123053 3.87972,15.106132 2.12931,3.406902 5.22058,5.483758 8.66745,6.10849 l 0,111.521225 c 0,3.021398 0.71496,5.766584 2.06368,7.924529 1.33745,2.13991 3.38436,3.71462 5.86085,3.71462 2.47649,0 4.46469,-1.61284 5.7783,-3.71462 1.32525,-2.120401 2.14623,-4.862996 2.14623,-7.924529 l 0,-111.521225 c 3.43182,-0.628309 6.46558,-2.717563 8.5849,-6.10849 2.47782,-3.964517 3.96227,-9.274768 3.96227,-15.106132 l 0,-96.497644 c 0,-1.95039 -0.50535,-3.76372 -1.40331,-5.20047 -0.85379,-1.36606 -2.23426,-2.47641 -3.96226,-2.47641 -1.728,0 -3.14961,1.04407 -4.04481,2.47641 -0.89796,1.43675 -1.4033,3.25008 -1.4033,5.20047 l 0,96.497644 c 0,1.401416 -0.33452,2.598904 -0.82547,3.384434 -0.4457,0.71311 -0.97971,0.990566 -1.32076,0.990566 -0.34106,0 -0.87506,-0.277448 -1.32075,-0.990566 -0.49096,-0.78553 -0.82548,-1.983018 -0.82548,-3.384434 l 0,-96.497644 c 0,-1.88277 -0.38346,-3.70078 -1.32075,-5.20047 -0.89521,-1.43232 -2.31682,-2.47641 -4.04481,-2.47641 -1.728,0 -3.14961,1.04407 -4.04481,2.47641 -0.89796,1.43675 -1.4033,3.25008 -1.4033,5.20047 l 0,96.497644 c 0,1.401416 -0.33452,2.598904 -0.82548,3.384434 -0.48226,0.771627 -0.89716,0.990566 -1.2382,0.990566 -0.34107,0 -0.87506,-0.277451 -1.32076,-0.990566 -0.49096,-0.78553 -0.82547,-1.983018 -0.82547,-3.384434 l 0,-96.497644 c 0,-1.95039 -0.50535,-3.76372 -1.4033,-5.20047 -0.89521,-1.43232 -2.31682,-2.47641 -4.04481,-2.47641 z"
     id="path26681"
     style="font-size:medium;font-style:normal;font-variant:normal;font-weight:normal;font-stretch:normal;text-indent:0;text-align:start;text-decoration:none;line-height:normal;letter-spacing:normal;word-spacing:normal;text-transform:none;direction:ltr;block-progression:tb;writing-mode:lr-tb;text-anchor:start;baseline-shift:baseline;color:#000000;fill:#009246;fill-opacity:1;fill-rule:nonzero;stroke:none;stroke-width:1.5;marker:none;visibility:visible;display:inline;overflow:visible;enable-background:accumulate;font-family:Sans;-inkscape-font-specification:Sans" />
  <path
     d="m 172.93066,-148.85204 c -1.13694,-0.041 -2.27253,0.0365 -3.39283,0.25132 -2.27985,0.43717 -4.3785,1.37606 -6.28301,2.63887 -3.76701,2.49777 -6.75291,6.19891 -9.3931,11.02668 -10.5678,19.32397 -17.44494,59.204849 -12.37754,142.3102368 l 0,0.031415 0.0942,1.507923 0.40839,6.4715032 6.50292,0 1.50792,0 9.07896,0 0,79.951334 c 0,4.217691 1.01954,8.228448 3.1415,11.623568 2.18913,3.50261 6.22799,6.94273 11.65499,6.94273 5.42701,0 9.43445,-3.44012 11.62357,-6.94273 2.12196,-3.39513 3.17293,-7.405877 3.17293,-11.623568 l 0,-225.183172 c 0,-7.8271 -3.93956,-16.16426 -12.34612,-18.50347 -1.09895,-0.30579 -2.25589,-0.46164 -3.39283,-0.50264 z"
     id="path52987"
     style="fill:#000000;fill-opacity:0.2;fill-rule:nonzero;stroke:none" />
  <path
     d="m 165.81802,-146.84147 c -1.24859,0.23941 -2.5301,0.78015 -3.76981,1.60216 -2.47943,1.64402 -4.87901,4.43197 -7.16263,8.60773 -9.13448,16.70304 -16.56348,56.011775 -11.52933,138.571841 l 0.0942,1.507923 1.50793,0 15.99026,0 0,86.862648 c 0,3.044456 0.77523,5.820673 2.10481,7.948011 1.32959,2.127337 3.35815,3.706977 5.78037,3.706977 2.42223,0 4.45079,-1.57964 5.78038,-3.706977 1.32958,-2.127338 2.1048,-4.903555 2.1048,-7.948011 l 0,-225.183172 c 0,-5.55624 -2.73843,-10.57743 -7.28829,-11.84347 -1.13747,-0.31652 -2.36414,-0.36508 -3.61273,-0.12566 z"
     id="path34565"
     style="fill:#333333;fill-opacity:1;stroke:#333333;stroke-width:13.82262707;stroke-miterlimit:4;stroke-opacity:1;stroke-dasharray:none" />
  <path
     d="m 136.46875,4.9375 c -0.22901,-0.00824 -0.45116,-0.014069 -0.6875,0.03125 -0.47268,0.090634 -0.96818,0.3138105 -1.4375,0.625 -0.93864,0.622379 -1.85424,1.6691766 -2.71875,3.25 -3.45805,6.323294 -6.24954,21.213868 -4.34375,52.46875 l 0.0312,0.5625 6.625,0 0,32.875 c 0,1.152544 0.27791,2.225901 0.78125,3.03125 0.50334,0.805349 1.27052,1.40625 2.1875,1.40625 0.91699,0 1.68416,-0.600901 2.1875,-1.40625 0.50334,-0.805349 0.8125,-1.878706 0.8125,-3.03125 l 0,-85.25 c 0,-2.1034337 -1.02755,-3.9894634 -2.75,-4.46875 -0.21531,-0.059913 -0.45849,-0.085506 -0.6875,-0.09375 z"
     transform="matrix(2.6415094,0,0,2.6415094,-192.83019,-160)"
     id="path1918"
     style="fill:#ce2b37;fill-opacity:1;stroke:none" />
  <path
     d="m 3.99447,-142.88583 c -69.184498,0 -125.40233,56.217838 -125.40233,125.402336 0,69.184498 56.217832,125.402334 125.40233,125.402334 69.184502,0 125.40233,-56.217836 125.40233,-125.402334 0,-69.184498 -56.217828,-125.402336 -125.40233,-125.402336 z"
     id="circle52991"
     style="fill:#000000;fill-opacity:0.2;fill-rule:nonzero;stroke:none" />
  <path
     d="m -1.0731064,-144.15095 c -21.9042976,0 -42.4240096,5.79894 -60.1768876,15.9316 l 0,211.403321 c 17.752878,10.13267 38.27259,15.93161 60.1768876,15.93161 24.0221854,0 46.4339014,-6.9673 65.2948124,-18.98585 l 0,-205.294831 c -18.85739,-12.01194 -41.279798,-18.98585 -65.2948124,-18.98585 z"
     id="rect6"
     style="fill:#ffffff" />
  <path
     d="m -61.249989,-128.21935 c -36.69434,20.94373 -61.415101,60.467804 -61.415101,105.742933 0,45.275129 24.720761,84.716658 61.415101,105.660388 l 0,-211.403321 z"
     id="rect4"
     style="fill:#009246" />
  <path
     d="M 72.59375,6 C 64.301408,6 56.533233,8.1953144 49.8125,12.03125 l 0,80.03125 c 6.720733,3.835939 14.488908,6.03125 22.78125,6.03125 8.298376,0 16.08754,-2.189916 22.8125,-6.03125 l 0,-80.03125 C 88.681732,8.1914529 80.889649,6 72.59375,6 z"
     transform="matrix(2.6415094,0,0,2.6415094,-192.83019,-160)"
     id="rect6-4"
     style="fill:#ffffff" />
  <path
     d="m 59.18633,-128.21935 c 36.69434,20.94373 61.4151,60.467804 61.4151,105.742933 0,45.275129 -24.72076,84.716658 -61.4151,105.660388 l 0,-211.403321 z"
     id="rect4-8"
     style="fill:#ce2b37;fill-opacity:1" />
  <circle
     cx="0"
     cy="0"
     r="100"
     transform="matrix(1.216391,0,0,1.216391,-1.03194,-22.509917)"
     id="circle1912"
     style="fill:none;stroke:#333333;stroke-width:6.19834709;stroke-miterlimit:4;stroke-opacity:1;stroke-dasharray:none" />
  <circle
     cx="0"
     cy="0"
     r="100"
     transform="matrix(0.87115817,0,0,0.87115817,-1.0319389,-22.509916)"
     id="circle3015"
     style="fill:none;stroke:#333333;stroke-width:6.19834709;stroke-miterlimit:4;stroke-opacity:1;stroke-dasharray:none" />
</svg>
